<?xml version="1.0" encoding="UTF-8" standalone="no"?>
<svg
xmlns="http://www.w3.org/2000/svg"
version="1.0"
width="800" height="800"
id="c600.svg">
<g style="stroke:#000000;stroke-width:1;stroke-opacity:1.0;">
<line x1="700.612" y1="618.408" x2="546.948" y2="602.257"/>
<line x1="700.612" y1="618.408" x2="763.457" y2="477.255"/>
<line x1="700.612" y1="618.408" x2="739.453" y2="551.134"/>
<line x1="700.612" y1="618.408" x2="700.612" y2="431.596"/>
<line x1="700.612" y1="618.408" x2="624.629" y2="602.257"/>
<line x1="700.612" y1="618.408" x2="661.772" y2="551.134"/>
<line x1="700.612" y1="618.408" x2="585.789" y2="721.795"/>
<line x1="700.612" y1="618.408" x2="637.767" y2="477.255"/>
<line x1="700.612" y1="618.408" x2="514.824" y2="753.391"/>
<line x1="700.612" y1="618.408" x2="771.577" y2="400.000"/>
<line x1="700.612" y1="618.408" x2="648.634" y2="676.136"/>
<line x1="700.612" y1="618.408" x2="522.944" y2="676.136"/>
<line x1="546.948" y1="602.257" x2="514.824" y2="451.123"/>
<line x1="546.948" y1="602.257" x2="337.155" y2="508.851"/>
<line x1="546.948" y1="602.257" x2="700.612" y2="431.596"/>
<line x1="546.948" y1="602.257" x2="624.629" y2="602.257"/>
<line x1="546.948" y1="602.257" x2="413.138" y2="525.002"/>
<line x1="546.948" y1="602.257" x2="337.155" y2="695.663"/>
<line x1="546.948" y1="602.257" x2="637.767" y2="477.255"/>
<line x1="546.948" y1="602.257" x2="514.824" y2="753.391"/>
<line x1="546.948" y1="602.257" x2="522.944" y2="373.868"/>
<line x1="546.948" y1="602.257" x2="400.000" y2="650.003"/>
<line x1="546.948" y1="602.257" x2="522.944" y2="676.136"/>
<line x1="451.979" y1="644.540" x2="298.315" y2="628.389"/>
<line x1="451.979" y1="644.540" x2="361.160" y2="519.538"/>
<line x1="451.979" y1="644.540" x2="585.789" y2="567.285"/>
<line x1="451.979" y1="644.540" x2="298.315" y2="473.879"/>
<line x1="451.979" y1="644.540" x2="222.331" y2="644.540"/>
<line x1="451.979" y1="644.540" x2="661.772" y2="551.134"/>
<line x1="451.979" y1="644.540" x2="585.789" y2="721.795"/>
<line x1="451.979" y1="644.540" x2="484.103" y2="493.406"/>
<line x1="451.979" y1="644.540" x2="361.160" y2="769.542"/>
<line x1="451.979" y1="644.540" x2="522.944" y2="426.132"/>
<line x1="451.979" y1="644.540" x2="400.000" y2="702.268"/>
<line x1="451.979" y1="644.540" x2="522.944" y2="676.136"/>
<line x1="298.315" y1="628.389" x2="112.526" y2="493.406"/>
<line x1="298.315" y1="628.389" x2="183.491" y2="525.002"/>
<line x1="298.315" y1="628.389" x2="298.315" y2="473.879"/>
<line x1="298.315" y1="628.389" x2="222.331" y2="644.540"/>
<line x1="298.315" y1="628.389" x2="413.138" y2="525.002"/>
<line x1="298.315" y1="628.389" x2="337.155" y2="695.663"/>
<line x1="298.315" y1="628.389" x2="484.103" y2="493.406"/>
<line x1="298.315" y1="628.389" x2="361.160" y2="769.542"/>
<line x1="298.315" y1="628.389" x2="274.310" y2="400.000"/>
<line x1="298.315" y1="628.389" x2="151.366" y2="676.136"/>
<line x1="298.315" y1="628.389" x2="522.944" y2="676.136"/>
<line x1="501.685" y1="171.611" x2="348.021" y2="155.460"/>
<line x1="501.685" y1="171.611" x2="687.474" y2="306.594"/>
<line x1="501.685" y1="171.611" x2="616.509" y2="274.998"/>
<line x1="501.685" y1="171.611" x2="577.669" y2="155.460"/>
<line x1="501.685" y1="171.611" x2="501.685" y2="326.121"/>
<line x1="501.685" y1="171.611" x2="462.845" y2="104.337"/>
<line x1="501.685" y1="171.611" x2="386.862" y2="274.998"/>
<line x1="501.685" y1="171.611" x2="438.840" y2="30.458"/>
<line x1="501.685" y1="171.611" x2="315.897" y2="306.594"/>
<line x1="501.685" y1="171.611" x2="648.634" y2="123.864"/>
<line x1="501.685" y1="171.611" x2="525.690" y2="400.000"/>
<line x1="501.685" y1="171.611" x2="277.056" y2="123.864"/>
<line x1="348.021" y1="155.460" x2="438.840" y2="280.462"/>
<line x1="348.021" y1="155.460" x2="214.211" y2="232.715"/>
<line x1="348.021" y1="155.460" x2="577.669" y2="155.460"/>
<line x1="348.021" y1="155.460" x2="501.685" y2="326.121"/>
<line x1="348.021" y1="155.460" x2="214.211" y2="78.205"/>
<line x1="348.021" y1="155.460" x2="138.228" y2="248.866"/>
<line x1="348.021" y1="155.460" x2="438.840" y2="30.458"/>
<line x1="348.021" y1="155.460" x2="315.897" y2="306.594"/>
<line x1="348.021" y1="155.460" x2="400.000" y2="97.732"/>
<line x1="348.021" y1="155.460" x2="277.056" y2="373.868"/>
<line x1="348.021" y1="155.460" x2="277.056" y2="123.864"/>
<line x1="253.052" y1="197.743" x2="99.388" y2="181.592"/>
<line x1="253.052" y1="197.743" x2="285.176" y2="348.877"/>
<line x1="253.052" y1="197.743" x2="462.845" y2="291.149"/>
<line x1="253.052" y1="197.743" x2="175.371" y2="197.743"/>
<line x1="253.052" y1="197.743" x2="99.388" y2="368.404"/>
<line x1="253.052" y1="197.743" x2="462.845" y2="104.337"/>
<line x1="253.052" y1="197.743" x2="386.862" y2="274.998"/>
<line x1="253.052" y1="197.743" x2="285.176" y2="46.609"/>
<line x1="253.052" y1="197.743" x2="162.233" y2="322.745"/>
<line x1="253.052" y1="197.743" x2="400.000" y2="149.997"/>
<line x1="253.052" y1="197.743" x2="277.056" y2="426.132"/>
<line x1="253.052" y1="197.743" x2="277.056" y2="123.864"/>
<line x1="99.388" y1="181.592" x2="36.543" y2="322.745"/>
<line x1="99.388" y1="181.592" x2="60.547" y2="248.866"/>
<line x1="99.388" y1="181.592" x2="175.371" y2="197.743"/>
<line x1="99.388" y1="181.592" x2="99.388" y2="368.404"/>
<line x1="99.388" y1="181.592" x2="214.211" y2="78.205"/>
<line x1="99.388" y1="181.592" x2="138.228" y2="248.866"/>
<line x1="99.388" y1="181.592" x2="285.176" y2="46.609"/>
<line x1="99.388" y1="181.592" x2="162.233" y2="322.745"/>
<line x1="99.388" y1="181.592" x2="151.366" y2="123.864"/>
<line x1="99.388" y1="181.592" x2="28.423" y2="400.000"/>
<line x1="99.388" y1="181.592" x2="277.056" y2="123.864"/>
<line x1="763.457" y1="477.255" x2="687.474" y2="306.594"/>
<line x1="763.457" y1="477.255" x2="739.453" y2="551.134"/>
<line x1="763.457" y1="477.255" x2="700.612" y2="431.596"/>
<line x1="763.457" y1="477.255" x2="624.629" y2="602.257"/>
<line x1="763.457" y1="477.255" x2="763.457" y2="322.745"/>
<line x1="763.457" y1="477.255" x2="687.474" y2="493.406"/>
<line x1="763.457" y1="477.255" x2="739.453" y2="248.866"/>
<line x1="763.457" y1="477.255" x2="616.509" y2="525.002"/>
<line x1="763.457" y1="477.255" x2="771.577" y2="400.000"/>
<line x1="763.457" y1="477.255" x2="648.634" y2="676.136"/>
<line x1="763.457" y1="477.255" x2="648.634" y2="373.868"/>
<line x1="514.824" y1="451.123" x2="438.840" y2="280.462"/>
<line x1="514.824" y1="451.123" x2="337.155" y2="508.851"/>
<line x1="514.824" y1="451.123" x2="700.612" y2="431.596"/>
<line x1="514.824" y1="451.123" x2="624.629" y2="602.257"/>
<line x1="514.824" y1="451.123" x2="361.160" y2="280.462"/>
<line x1="514.824" y1="451.123" x2="285.176" y2="451.123"/>
<line x1="514.824" y1="451.123" x2="585.789" y2="232.715"/>
<line x1="514.824" y1="451.123" x2="462.845" y2="508.851"/>
<line x1="514.824" y1="451.123" x2="522.944" y2="373.868"/>
<line x1="514.824" y1="451.123" x2="400.000" y2="650.003"/>
<line x1="514.824" y1="451.123" x2="648.634" y2="373.868"/>
<line x1="361.160" y1="519.538" x2="285.176" y2="348.877"/>
<line x1="361.160" y1="519.538" x2="585.789" y2="567.285"/>
<line x1="361.160" y1="519.538" x2="298.315" y2="473.879"/>
<line x1="361.160" y1="519.538" x2="222.331" y2="644.540"/>
<line x1="361.160" y1="519.538" x2="514.824" y2="348.877"/>
<line x1="361.160" y1="519.538" x2="438.840" y2="519.538"/>
<line x1="361.160" y1="519.538" x2="337.155" y2="291.149"/>
<line x1="361.160" y1="519.538" x2="214.211" y2="567.285"/>
<line x1="361.160" y1="519.538" x2="522.944" y2="426.132"/>
<line x1="361.160" y1="519.538" x2="400.000" y2="702.268"/>
<line x1="361.160" y1="519.538" x2="151.366" y2="426.132"/>
<line x1="112.526" y1="493.406" x2="36.543" y2="322.745"/>
<line x1="112.526" y1="493.406" x2="183.491" y2="525.002"/>
<line x1="112.526" y1="493.406" x2="298.315" y2="473.879"/>
<line x1="112.526" y1="493.406" x2="222.331" y2="644.540"/>
<line x1="112.526" y1="493.406" x2="112.526" y2="306.594"/>
<line x1="112.526" y1="493.406" x2="36.543" y2="477.255"/>
<line x1="112.526" y1="493.406" x2="183.491" y2="274.998"/>
<line x1="112.526" y1="493.406" x2="60.547" y2="551.134"/>
<line x1="112.526" y1="493.406" x2="274.310" y2="400.000"/>
<line x1="112.526" y1="493.406" x2="151.366" y2="676.136"/>
<line x1="112.526" y1="493.406" x2="151.366" y2="426.132"/>
<line x1="687.474" y1="306.594" x2="616.509" y2="274.998"/>
<line x1="687.474" y1="306.594" x2="577.669" y2="155.460"/>
<line x1="687.474" y1="306.594" x2="501.685" y2="326.121"/>
<line x1="687.474" y1="306.594" x2="763.457" y2="322.745"/>
<line x1="687.474" y1="306.594" x2="687.474" y2="493.406"/>
<line x1="687.474" y1="306.594" x2="739.453" y2="248.866"/>
<line x1="687.474" y1="306.594" x2="616.509" y2="525.002"/>
<line x1="687.474" y1="306.594" x2="648.634" y2="123.864"/>
<line x1="687.474" y1="306.594" x2="525.690" y2="400.000"/>
<line x1="687.474" y1="306.594" x2="648.634" y2="373.868"/>
<line x1="438.840" y1="280.462" x2="214.211" y2="232.715"/>
<line x1="438.840" y1="280.462" x2="577.669" y2="155.460"/>
<line x1="438.840" y1="280.462" x2="501.685" y2="326.121"/>
<line x1="438.840" y1="280.462" x2="361.160" y2="280.462"/>
<line x1="438.840" y1="280.462" x2="285.176" y2="451.123"/>
<line x1="438.840" y1="280.462" x2="585.789" y2="232.715"/>
<line x1="438.840" y1="280.462" x2="462.845" y2="508.851"/>
<line x1="438.840" y1="280.462" x2="400.000" y2="97.732"/>
<line x1="438.840" y1="280.462" x2="277.056" y2="373.868"/>
<line x1="438.840" y1="280.462" x2="648.634" y2="373.868"/>
<line x1="285.176" y1="348.877" x2="462.845" y2="291.149"/>
<line x1="285.176" y1="348.877" x2="175.371" y2="197.743"/>
<line x1="285.176" y1="348.877" x2="99.388" y2="368.404"/>
<line x1="285.176" y1="348.877" x2="514.824" y2="348.877"/>
<line x1="285.176" y1="348.877" x2="438.840" y2="519.538"/>
<line x1="285.176" y1="348.877" x2="337.155" y2="291.149"/>
<line x1="285.176" y1="348.877" x2="214.211" y2="567.285"/>
<line x1="285.176" y1="348.877" x2="400.000" y2="149.997"/>
<line x1="285.176" y1="348.877" x2="277.056" y2="426.132"/>
<line x1="285.176" y1="348.877" x2="151.366" y2="426.132"/>
<line x1="36.543" y1="322.745" x2="60.547" y2="248.866"/>
<line x1="36.543" y1="322.745" x2="175.371" y2="197.743"/>
<line x1="36.543" y1="322.745" x2="99.388" y2="368.404"/>
<line x1="36.543" y1="322.745" x2="112.526" y2="306.594"/>
<line x1="36.543" y1="322.745" x2="36.543" y2="477.255"/>
<line x1="36.543" y1="322.745" x2="183.491" y2="274.998"/>
<line x1="36.543" y1="322.745" x2="60.547" y2="551.134"/>
<line x1="36.543" y1="322.745" x2="151.366" y2="123.864"/>
<line x1="36.543" y1="322.745" x2="28.423" y2="400.000"/>
<line x1="36.543" y1="322.745" x2="151.366" y2="426.132"/>
<line x1="739.453" y1="551.134" x2="585.789" y2="567.285"/>
<line x1="739.453" y1="551.134" x2="661.772" y2="551.134"/>
<line x1="739.453" y1="551.134" x2="585.789" y2="721.795"/>
<line x1="739.453" y1="551.134" x2="763.457" y2="322.745"/>
<line x1="739.453" y1="551.134" x2="687.474" y2="493.406"/>
<line x1="739.453" y1="551.134" x2="700.612" y2="368.404"/>
<line x1="739.453" y1="551.134" x2="577.669" y2="644.540"/>
<line x1="739.453" y1="551.134" x2="771.577" y2="400.000"/>
<line x1="739.453" y1="551.134" x2="648.634" y2="676.136"/>
<line x1="739.453" y1="551.134" x2="648.634" y2="426.132"/>
<line x1="337.155" y1="508.851" x2="183.491" y2="525.002"/>
<line x1="337.155" y1="508.851" x2="413.138" y2="525.002"/>
<line x1="337.155" y1="508.851" x2="337.155" y2="695.663"/>
<line x1="337.155" y1="508.851" x2="361.160" y2="280.462"/>
<line x1="337.155" y1="508.851" x2="285.176" y2="451.123"/>
<line x1="337.155" y1="508.851" x2="298.315" y2="326.121"/>
<line x1="337.155" y1="508.851" x2="175.371" y2="602.257"/>
<line x1="337.155" y1="508.851" x2="522.944" y2="373.868"/>
<line x1="337.155" y1="508.851" x2="400.000" y2="650.003"/>
<line x1="337.155" y1="508.851" x2="151.366" y2="373.868"/>
<line x1="585.789" y1="567.285" x2="661.772" y2="551.134"/>
<line x1="585.789" y1="567.285" x2="585.789" y2="721.795"/>
<line x1="585.789" y1="567.285" x2="514.824" y2="348.877"/>
<line x1="585.789" y1="567.285" x2="438.840" y2="519.538"/>
<line x1="585.789" y1="567.285" x2="700.612" y2="368.404"/>
<line x1="585.789" y1="567.285" x2="577.669" y2="644.540"/>
<line x1="585.789" y1="567.285" x2="522.944" y2="426.132"/>
<line x1="585.789" y1="567.285" x2="400.000" y2="702.268"/>
<line x1="585.789" y1="567.285" x2="648.634" y2="426.132"/>
<line x1="183.491" y1="525.002" x2="413.138" y2="525.002"/>
<line x1="183.491" y1="525.002" x2="337.155" y2="695.663"/>
<line x1="183.491" y1="525.002" x2="112.526" y2="306.594"/>
<line x1="183.491" y1="525.002" x2="36.543" y2="477.255"/>
<line x1="183.491" y1="525.002" x2="298.315" y2="326.121"/>
<line x1="183.491" y1="525.002" x2="175.371" y2="602.257"/>
<line x1="183.491" y1="525.002" x2="274.310" y2="400.000"/>
<line x1="183.491" y1="525.002" x2="151.366" y2="676.136"/>
<line x1="183.491" y1="525.002" x2="151.366" y2="373.868"/>
<line x1="616.509" y1="274.998" x2="462.845" y2="291.149"/>
<line x1="616.509" y1="274.998" x2="462.845" y2="104.337"/>
<line x1="616.509" y1="274.998" x2="386.862" y2="274.998"/>
<line x1="616.509" y1="274.998" x2="763.457" y2="322.745"/>
<line x1="616.509" y1="274.998" x2="687.474" y2="493.406"/>
<line x1="616.509" y1="274.998" x2="624.629" y2="197.743"/>
<line x1="616.509" y1="274.998" x2="501.685" y2="473.879"/>
<line x1="616.509" y1="274.998" x2="648.634" y2="123.864"/>
<line x1="616.509" y1="274.998" x2="525.690" y2="400.000"/>
<line x1="616.509" y1="274.998" x2="648.634" y2="426.132"/>
<line x1="214.211" y1="232.715" x2="60.547" y2="248.866"/>
<line x1="214.211" y1="232.715" x2="214.211" y2="78.205"/>
<line x1="214.211" y1="232.715" x2="138.228" y2="248.866"/>
<line x1="214.211" y1="232.715" x2="361.160" y2="280.462"/>
<line x1="214.211" y1="232.715" x2="285.176" y2="451.123"/>
<line x1="214.211" y1="232.715" x2="222.331" y2="155.460"/>
<line x1="214.211" y1="232.715" x2="99.388" y2="431.596"/>
<line x1="214.211" y1="232.715" x2="400.000" y2="97.732"/>
<line x1="214.211" y1="232.715" x2="277.056" y2="373.868"/>
<line x1="214.211" y1="232.715" x2="151.366" y2="373.868"/>
<line x1="462.845" y1="291.149" x2="462.845" y2="104.337"/>
<line x1="462.845" y1="291.149" x2="386.862" y2="274.998"/>
<line x1="462.845" y1="291.149" x2="514.824" y2="348.877"/>
<line x1="462.845" y1="291.149" x2="438.840" y2="519.538"/>
<line x1="462.845" y1="291.149" x2="624.629" y2="197.743"/>
<line x1="462.845" y1="291.149" x2="501.685" y2="473.879"/>
<line x1="462.845" y1="291.149" x2="400.000" y2="149.997"/>
<line x1="462.845" y1="291.149" x2="277.056" y2="426.132"/>
<line x1="462.845" y1="291.149" x2="648.634" y2="426.132"/>
<line x1="60.547" y1="248.866" x2="214.211" y2="78.205"/>
<line x1="60.547" y1="248.866" x2="138.228" y2="248.866"/>
<line x1="60.547" y1="248.866" x2="112.526" y2="306.594"/>
<line x1="60.547" y1="248.866" x2="36.543" y2="477.255"/>
<line x1="60.547" y1="248.866" x2="222.331" y2="155.460"/>
<line x1="60.547" y1="248.866" x2="99.388" y2="431.596"/>
<line x1="60.547" y1="248.866" x2="151.366" y2="123.864"/>
<line x1="60.547" y1="248.866" x2="28.423" y2="400.000"/>
<line x1="60.547" y1="248.866" x2="151.366" y2="373.868"/>
<line x1="700.612" y1="431.596" x2="624.629" y2="602.257"/>
<line x1="700.612" y1="431.596" x2="637.767" y2="477.255"/>
<line x1="700.612" y1="431.596" x2="739.453" y2="248.866"/>
<line x1="700.612" y1="431.596" x2="585.789" y2="232.715"/>
<line x1="700.612" y1="431.596" x2="661.772" y2="248.866"/>
<line x1="700.612" y1="431.596" x2="771.577" y2="400.000"/>
<line x1="700.612" y1="431.596" x2="522.944" y2="373.868"/>
<line x1="700.612" y1="431.596" x2="648.634" y2="373.868"/>
<line x1="624.629" y1="602.257" x2="514.824" y2="753.391"/>
<line x1="624.629" y1="602.257" x2="616.509" y2="525.002"/>
<line x1="624.629" y1="602.257" x2="462.845" y2="508.851"/>
<line x1="624.629" y1="602.257" x2="462.845" y2="695.663"/>
<line x1="624.629" y1="602.257" x2="648.634" y2="676.136"/>
<line x1="624.629" y1="602.257" x2="400.000" y2="650.003"/>
<line x1="624.629" y1="602.257" x2="648.634" y2="373.868"/>
<line x1="298.315" y1="473.879" x2="222.331" y2="644.540"/>
<line x1="298.315" y1="473.879" x2="484.103" y2="493.406"/>
<line x1="298.315" y1="473.879" x2="337.155" y2="291.149"/>
<line x1="298.315" y1="473.879" x2="183.491" y2="274.998"/>
<line x1="298.315" y1="473.879" x2="413.138" y2="274.998"/>
<line x1="298.315" y1="473.879" x2="522.944" y2="426.132"/>
<line x1="298.315" y1="473.879" x2="274.310" y2="400.000"/>
<line x1="298.315" y1="473.879" x2="151.366" y2="426.132"/>
<line x1="222.331" y1="644.540" x2="361.160" y2="769.542"/>
<line x1="222.331" y1="644.540" x2="214.211" y2="567.285"/>
<line x1="222.331" y1="644.540" x2="60.547" y2="551.134"/>
<line x1="222.331" y1="644.540" x2="214.211" y2="721.795"/>
<line x1="222.331" y1="644.540" x2="400.000" y2="702.268"/>
<line x1="222.331" y1="644.540" x2="151.366" y2="676.136"/>
<line x1="222.331" y1="644.540" x2="151.366" y2="426.132"/>
<line x1="577.669" y1="155.460" x2="501.685" y2="326.121"/>
<line x1="577.669" y1="155.460" x2="438.840" y2="30.458"/>
<line x1="577.669" y1="155.460" x2="739.453" y2="248.866"/>
<line x1="577.669" y1="155.460" x2="585.789" y2="232.715"/>
<line x1="577.669" y1="155.460" x2="585.789" y2="78.205"/>
<line x1="577.669" y1="155.460" x2="648.634" y2="123.864"/>
<line x1="577.669" y1="155.460" x2="400.000" y2="97.732"/>
<line x1="577.669" y1="155.460" x2="648.634" y2="373.868"/>
<line x1="501.685" y1="326.121" x2="315.897" y2="306.594"/>
<line x1="501.685" y1="326.121" x2="616.509" y2="525.002"/>
<line x1="501.685" y1="326.121" x2="462.845" y2="508.851"/>
<line x1="501.685" y1="326.121" x2="386.862" y2="525.002"/>
<line x1="501.685" y1="326.121" x2="525.690" y2="400.000"/>
<line x1="501.685" y1="326.121" x2="277.056" y2="373.868"/>
<line x1="501.685" y1="326.121" x2="648.634" y2="373.868"/>
<line x1="175.371" y1="197.743" x2="99.388" y2="368.404"/>
<line x1="175.371" y1="197.743" x2="285.176" y2="46.609"/>
<line x1="175.371" y1="197.743" x2="337.155" y2="291.149"/>
<line x1="175.371" y1="197.743" x2="183.491" y2="274.998"/>
<line x1="175.371" y1="197.743" x2="337.155" y2="104.337"/>
<line x1="175.371" y1="197.743" x2="400.000" y2="149.997"/>
<line x1="175.371" y1="197.743" x2="151.366" y2="123.864"/>
<line x1="175.371" y1="197.743" x2="151.366" y2="426.132"/>
<line x1="99.388" y1="368.404" x2="162.233" y2="322.745"/>
<line x1="99.388" y1="368.404" x2="214.211" y2="567.285"/>
<line x1="99.388" y1="368.404" x2="60.547" y2="551.134"/>
<line x1="99.388" y1="368.404" x2="138.228" y2="551.134"/>
<line x1="99.388" y1="368.404" x2="277.056" y2="426.132"/>
<line x1="99.388" y1="368.404" x2="28.423" y2="400.000"/>
<line x1="99.388" y1="368.404" x2="151.366" y2="426.132"/>
<line x1="661.772" y1="551.134" x2="585.789" y2="721.795"/>
<line x1="661.772" y1="551.134" x2="637.767" y2="477.255"/>
<line x1="661.772" y1="551.134" x2="484.103" y2="493.406"/>
<line x1="661.772" y1="551.134" x2="700.612" y2="368.404"/>
<line x1="661.772" y1="551.134" x2="637.767" y2="322.745"/>
<line x1="661.772" y1="551.134" x2="771.577" y2="400.000"/>
<line x1="661.772" y1="551.134" x2="522.944" y2="426.132"/>
<line x1="661.772" y1="551.134" x2="522.944" y2="676.136"/>
<line x1="585.789" y1="721.795" x2="514.824" y2="753.391"/>
<line x1="585.789" y1="721.795" x2="361.160" y2="769.542"/>
<line x1="585.789" y1="721.795" x2="577.669" y2="644.540"/>
<line x1="585.789" y1="721.795" x2="438.840" y2="769.542"/>
<line x1="585.789" y1="721.795" x2="648.634" y2="676.136"/>
<line x1="585.789" y1="721.795" x2="400.000" y2="702.268"/>
<line x1="585.789" y1="721.795" x2="522.944" y2="676.136"/>
<line x1="413.138" y1="525.002" x2="337.155" y2="695.663"/>
<line x1="413.138" y1="525.002" x2="637.767" y2="477.255"/>
<line x1="413.138" y1="525.002" x2="484.103" y2="493.406"/>
<line x1="413.138" y1="525.002" x2="298.315" y2="326.121"/>
<line x1="413.138" y1="525.002" x2="484.103" y2="306.594"/>
<line x1="413.138" y1="525.002" x2="522.944" y2="373.868"/>
<line x1="413.138" y1="525.002" x2="274.310" y2="400.000"/>
<line x1="413.138" y1="525.002" x2="522.944" y2="676.136"/>
<line x1="337.155" y1="695.663" x2="514.824" y2="753.391"/>
<line x1="337.155" y1="695.663" x2="361.160" y2="769.542"/>
<line x1="337.155" y1="695.663" x2="175.371" y2="602.257"/>
<line x1="337.155" y1="695.663" x2="285.176" y2="753.391"/>
<line x1="337.155" y1="695.663" x2="400.000" y2="650.003"/>
<line x1="337.155" y1="695.663" x2="151.366" y2="676.136"/>
<line x1="337.155" y1="695.663" x2="522.944" y2="676.136"/>
<line x1="462.845" y1="104.337" x2="386.862" y2="274.998"/>
<line x1="462.845" y1="104.337" x2="438.840" y2="30.458"/>
<line x1="462.845" y1="104.337" x2="285.176" y2="46.609"/>
<line x1="462.845" y1="104.337" x2="624.629" y2="197.743"/>
<line x1="462.845" y1="104.337" x2="514.824" y2="46.609"/>
<line x1="462.845" y1="104.337" x2="648.634" y2="123.864"/>
<line x1="462.845" y1="104.337" x2="400.000" y2="149.997"/>
<line x1="462.845" y1="104.337" x2="277.056" y2="123.864"/>
<line x1="386.862" y1="274.998" x2="315.897" y2="306.594"/>
<line x1="386.862" y1="274.998" x2="162.233" y2="322.745"/>
<line x1="386.862" y1="274.998" x2="501.685" y2="473.879"/>
<line x1="386.862" y1="274.998" x2="315.897" y2="493.406"/>
<line x1="386.862" y1="274.998" x2="525.690" y2="400.000"/>
<line x1="386.862" y1="274.998" x2="277.056" y2="426.132"/>
<line x1="386.862" y1="274.998" x2="277.056" y2="123.864"/>
<line x1="214.211" y1="78.205" x2="138.228" y2="248.866"/>
<line x1="214.211" y1="78.205" x2="438.840" y2="30.458"/>
<line x1="214.211" y1="78.205" x2="285.176" y2="46.609"/>
<line x1="214.211" y1="78.205" x2="222.331" y2="155.460"/>
<line x1="214.211" y1="78.205" x2="361.160" y2="30.458"/>
<line x1="214.211" y1="78.205" x2="400.000" y2="97.732"/>
<line x1="214.211" y1="78.205" x2="151.366" y2="123.864"/>
<line x1="214.211" y1="78.205" x2="277.056" y2="123.864"/>
<line x1="138.228" y1="248.866" x2="315.897" y2="306.594"/>
<line x1="138.228" y1="248.866" x2="162.233" y2="322.745"/>
<line x1="138.228" y1="248.866" x2="99.388" y2="431.596"/>
<line x1="138.228" y1="248.866" x2="162.233" y2="477.255"/>
<line x1="138.228" y1="248.866" x2="277.056" y2="373.868"/>
<line x1="138.228" y1="248.866" x2="28.423" y2="400.000"/>
<line x1="138.228" y1="248.866" x2="277.056" y2="123.864"/>
<line x1="763.457" y1="322.745" x2="687.474" y2="493.406"/>
<line x1="763.457" y1="322.745" x2="739.453" y2="248.866"/>
<line x1="763.457" y1="322.745" x2="700.612" y2="368.404"/>
<line x1="763.457" y1="322.745" x2="624.629" y2="197.743"/>
<line x1="763.457" y1="322.745" x2="700.612" y2="181.592"/>
<line x1="763.457" y1="322.745" x2="771.577" y2="400.000"/>
<line x1="763.457" y1="322.745" x2="648.634" y2="123.864"/>
<line x1="763.457" y1="322.745" x2="648.634" y2="426.132"/>
<line x1="687.474" y1="493.406" x2="616.509" y2="525.002"/>
<line x1="687.474" y1="493.406" x2="577.669" y2="644.540"/>
<line x1="687.474" y1="493.406" x2="501.685" y2="473.879"/>
<line x1="687.474" y1="493.406" x2="501.685" y2="628.389"/>
<line x1="687.474" y1="493.406" x2="648.634" y2="676.136"/>
<line x1="687.474" y1="493.406" x2="525.690" y2="400.000"/>
<line x1="687.474" y1="493.406" x2="648.634" y2="426.132"/>
<line x1="361.160" y1="280.462" x2="285.176" y2="451.123"/>
<line x1="361.160" y1="280.462" x2="585.789" y2="232.715"/>
<line x1="361.160" y1="280.462" x2="298.315" y2="326.121"/>
<line x1="361.160" y1="280.462" x2="222.331" y2="155.460"/>
<line x1="361.160" y1="280.462" x2="451.979" y2="155.460"/>
<line x1="361.160" y1="280.462" x2="522.944" y2="373.868"/>
<line x1="361.160" y1="280.462" x2="400.000" y2="97.732"/>
<line x1="361.160" y1="280.462" x2="151.366" y2="373.868"/>
<line x1="285.176" y1="451.123" x2="462.845" y2="508.851"/>
<line x1="285.176" y1="451.123" x2="175.371" y2="602.257"/>
<line x1="285.176" y1="451.123" x2="99.388" y2="431.596"/>
<line x1="285.176" y1="451.123" x2="253.052" y2="602.257"/>
<line x1="285.176" y1="451.123" x2="400.000" y2="650.003"/>
<line x1="285.176" y1="451.123" x2="277.056" y2="373.868"/>
<line x1="285.176" y1="451.123" x2="151.366" y2="373.868"/>
<line x1="514.824" y1="348.877" x2="438.840" y2="519.538"/>
<line x1="514.824" y1="348.877" x2="337.155" y2="291.149"/>
<line x1="514.824" y1="348.877" x2="700.612" y2="368.404"/>
<line x1="514.824" y1="348.877" x2="624.629" y2="197.743"/>
<line x1="514.824" y1="348.877" x2="546.948" y2="197.743"/>
<line x1="514.824" y1="348.877" x2="522.944" y2="426.132"/>
<line x1="514.824" y1="348.877" x2="400.000" y2="149.997"/>
<line x1="514.824" y1="348.877" x2="648.634" y2="426.132"/>
<line x1="438.840" y1="519.538" x2="214.211" y2="567.285"/>
<line x1="438.840" y1="519.538" x2="577.669" y2="644.540"/>
<line x1="438.840" y1="519.538" x2="501.685" y2="473.879"/>
<line x1="438.840" y1="519.538" x2="348.021" y2="644.540"/>
<line x1="438.840" y1="519.538" x2="400.000" y2="702.268"/>
<line x1="438.840" y1="519.538" x2="277.056" y2="426.132"/>
<line x1="438.840" y1="519.538" x2="648.634" y2="426.132"/>
<line x1="112.526" y1="306.594" x2="36.543" y2="477.255"/>
<line x1="112.526" y1="306.594" x2="183.491" y2="274.998"/>
<line x1="112.526" y1="306.594" x2="298.315" y2="326.121"/>
<line x1="112.526" y1="306.594" x2="222.331" y2="155.460"/>
<line x1="112.526" y1="306.594" x2="298.315" y2="171.611"/>
<line x1="112.526" y1="306.594" x2="274.310" y2="400.000"/>
<line x1="112.526" y1="306.594" x2="151.366" y2="123.864"/>
<line x1="112.526" y1="306.594" x2="151.366" y2="373.868"/>
<line x1="36.543" y1="477.255" x2="60.547" y2="551.134"/>
<line x1="36.543" y1="477.255" x2="175.371" y2="602.257"/>
<line x1="36.543" y1="477.255" x2="99.388" y2="431.596"/>
<line x1="36.543" y1="477.255" x2="99.388" y2="618.408"/>
<line x1="36.543" y1="477.255" x2="151.366" y2="676.136"/>
<line x1="36.543" y1="477.255" x2="28.423" y2="400.000"/>
<line x1="36.543" y1="477.255" x2="151.366" y2="373.868"/>
<line x1="637.767" y1="477.255" x2="484.103" y2="493.406"/>
<line x1="637.767" y1="477.255" x2="661.772" y2="248.866"/>
<line x1="637.767" y1="477.255" x2="637.767" y2="322.745"/>
<line x1="637.767" y1="477.255" x2="484.103" y2="306.594"/>
<line x1="637.767" y1="477.255" x2="771.577" y2="400.000"/>
<line x1="637.767" y1="477.255" x2="522.944" y2="373.868"/>
<line x1="637.767" y1="477.255" x2="522.944" y2="676.136"/>
<line x1="514.824" y1="753.391" x2="361.160" y2="769.542"/>
<line x1="514.824" y1="753.391" x2="462.845" y2="695.663"/>
<line x1="514.824" y1="753.391" x2="438.840" y2="769.542"/>
<line x1="514.824" y1="753.391" x2="285.176" y2="753.391"/>
<line x1="514.824" y1="753.391" x2="648.634" y2="676.136"/>
<line x1="514.824" y1="753.391" x2="400.000" y2="650.003"/>
<line x1="514.824" y1="753.391" x2="522.944" y2="676.136"/>
<line x1="484.103" y1="493.406" x2="413.138" y2="274.998"/>
<line x1="484.103" y1="493.406" x2="637.767" y2="322.745"/>
<line x1="484.103" y1="493.406" x2="484.103" y2="306.594"/>
<line x1="484.103" y1="493.406" x2="522.944" y2="426.132"/>
<line x1="484.103" y1="493.406" x2="274.310" y2="400.000"/>
<line x1="484.103" y1="493.406" x2="522.944" y2="676.136"/>
<line x1="361.160" y1="769.542" x2="214.211" y2="721.795"/>
<line x1="361.160" y1="769.542" x2="438.840" y2="769.542"/>
<line x1="361.160" y1="769.542" x2="285.176" y2="753.391"/>
<line x1="361.160" y1="769.542" x2="400.000" y2="702.268"/>
<line x1="361.160" y1="769.542" x2="151.366" y2="676.136"/>
<line x1="361.160" y1="769.542" x2="522.944" y2="676.136"/>
<line x1="438.840" y1="30.458" x2="285.176" y2="46.609"/>
<line x1="438.840" y1="30.458" x2="585.789" y2="78.205"/>
<line x1="438.840" y1="30.458" x2="514.824" y2="46.609"/>
<line x1="438.840" y1="30.458" x2="361.160" y2="30.458"/>
<line x1="438.840" y1="30.458" x2="648.634" y2="123.864"/>
<line x1="438.840" y1="30.458" x2="400.000" y2="97.732"/>
<line x1="438.840" y1="30.458" x2="277.056" y2="123.864"/>
<line x1="315.897" y1="306.594" x2="162.233" y2="322.745"/>
<line x1="315.897" y1="306.594" x2="386.862" y2="525.002"/>
<line x1="315.897" y1="306.594" x2="315.897" y2="493.406"/>
<line x1="315.897" y1="306.594" x2="162.233" y2="477.255"/>
<line x1="315.897" y1="306.594" x2="525.690" y2="400.000"/>
<line x1="315.897" y1="306.594" x2="277.056" y2="373.868"/>
<line x1="315.897" y1="306.594" x2="277.056" y2="123.864"/>
<line x1="285.176" y1="46.609" x2="337.155" y2="104.337"/>
<line x1="285.176" y1="46.609" x2="514.824" y2="46.609"/>
<line x1="285.176" y1="46.609" x2="361.160" y2="30.458"/>
<line x1="285.176" y1="46.609" x2="400.000" y2="149.997"/>
<line x1="285.176" y1="46.609" x2="151.366" y2="123.864"/>
<line x1="285.176" y1="46.609" x2="277.056" y2="123.864"/>
<line x1="162.233" y1="322.745" x2="138.228" y2="551.134"/>
<line x1="162.233" y1="322.745" x2="315.897" y2="493.406"/>
<line x1="162.233" y1="322.745" x2="162.233" y2="477.255"/>
<line x1="162.233" y1="322.745" x2="277.056" y2="426.132"/>
<line x1="162.233" y1="322.745" x2="28.423" y2="400.000"/>
<line x1="162.233" y1="322.745" x2="277.056" y2="123.864"/>
<line x1="739.453" y1="248.866" x2="585.789" y2="232.715"/>
<line x1="739.453" y1="248.866" x2="661.772" y2="248.866"/>
<line x1="739.453" y1="248.866" x2="585.789" y2="78.205"/>
<line x1="739.453" y1="248.866" x2="700.612" y2="181.592"/>
<line x1="739.453" y1="248.866" x2="771.577" y2="400.000"/>
<line x1="739.453" y1="248.866" x2="648.634" y2="123.864"/>
<line x1="739.453" y1="248.866" x2="648.634" y2="373.868"/>
<line x1="616.509" y1="525.002" x2="462.845" y2="508.851"/>
<line x1="616.509" y1="525.002" x2="462.845" y2="695.663"/>
<line x1="616.509" y1="525.002" x2="386.862" y2="525.002"/>
<line x1="616.509" y1="525.002" x2="501.685" y2="628.389"/>
<line x1="616.509" y1="525.002" x2="648.634" y2="676.136"/>
<line x1="616.509" y1="525.002" x2="525.690" y2="400.000"/>
<line x1="616.509" y1="525.002" x2="648.634" y2="373.868"/>
<line x1="585.789" y1="232.715" x2="661.772" y2="248.866"/>
<line x1="585.789" y1="232.715" x2="585.789" y2="78.205"/>
<line x1="585.789" y1="232.715" x2="451.979" y2="155.460"/>
<line x1="585.789" y1="232.715" x2="522.944" y2="373.868"/>
<line x1="585.789" y1="232.715" x2="400.000" y2="97.732"/>
<line x1="585.789" y1="232.715" x2="648.634" y2="373.868"/>
<line x1="462.845" y1="508.851" x2="462.845" y2="695.663"/>
<line x1="462.845" y1="508.851" x2="386.862" y2="525.002"/>
<line x1="462.845" y1="508.851" x2="253.052" y2="602.257"/>
<line x1="462.845" y1="508.851" x2="400.000" y2="650.003"/>
<line x1="462.845" y1="508.851" x2="277.056" y2="373.868"/>
<line x1="462.845" y1="508.851" x2="648.634" y2="373.868"/>
<line x1="337.155" y1="291.149" x2="183.491" y2="274.998"/>
<line x1="337.155" y1="291.149" x2="413.138" y2="274.998"/>
<line x1="337.155" y1="291.149" x2="337.155" y2="104.337"/>
<line x1="337.155" y1="291.149" x2="546.948" y2="197.743"/>
<line x1="337.155" y1="291.149" x2="522.944" y2="426.132"/>
<line x1="337.155" y1="291.149" x2="400.000" y2="149.997"/>
<line x1="337.155" y1="291.149" x2="151.366" y2="426.132"/>
<line x1="214.211" y1="567.285" x2="60.547" y2="551.134"/>
<line x1="214.211" y1="567.285" x2="214.211" y2="721.795"/>
<line x1="214.211" y1="567.285" x2="138.228" y2="551.134"/>
<line x1="214.211" y1="567.285" x2="348.021" y2="644.540"/>
<line x1="214.211" y1="567.285" x2="400.000" y2="702.268"/>
<line x1="214.211" y1="567.285" x2="277.056" y2="426.132"/>
<line x1="214.211" y1="567.285" x2="151.366" y2="426.132"/>
<line x1="183.491" y1="274.998" x2="413.138" y2="274.998"/>
<line x1="183.491" y1="274.998" x2="337.155" y2="104.337"/>
<line x1="183.491" y1="274.998" x2="298.315" y2="171.611"/>
<line x1="183.491" y1="274.998" x2="274.310" y2="400.000"/>
<line x1="183.491" y1="274.998" x2="151.366" y2="123.864"/>
<line x1="183.491" y1="274.998" x2="151.366" y2="426.132"/>
<line x1="60.547" y1="551.134" x2="214.211" y2="721.795"/>
<line x1="60.547" y1="551.134" x2="138.228" y2="551.134"/>
<line x1="60.547" y1="551.134" x2="99.388" y2="618.408"/>
<line x1="60.547" y1="551.134" x2="151.366" y2="676.136"/>
<line x1="60.547" y1="551.134" x2="28.423" y2="400.000"/>
<line x1="60.547" y1="551.134" x2="151.366" y2="426.132"/>
<line x1="700.612" y1="368.404" x2="624.629" y2="197.743"/>
<line x1="700.612" y1="368.404" x2="637.767" y2="322.745"/>
<line x1="700.612" y1="368.404" x2="700.612" y2="181.592"/>
<line x1="700.612" y1="368.404" x2="546.948" y2="197.743"/>
<line x1="700.612" y1="368.404" x2="771.577" y2="400.000"/>
<line x1="700.612" y1="368.404" x2="522.944" y2="426.132"/>
<line x1="700.612" y1="368.404" x2="648.634" y2="426.132"/>
<line x1="577.669" y1="644.540" x2="501.685" y2="473.879"/>
<line x1="577.669" y1="644.540" x2="438.840" y2="769.542"/>
<line x1="577.669" y1="644.540" x2="501.685" y2="628.389"/>
<line x1="577.669" y1="644.540" x2="348.021" y2="644.540"/>
<line x1="577.669" y1="644.540" x2="648.634" y2="676.136"/>
<line x1="577.669" y1="644.540" x2="400.000" y2="702.268"/>
<line x1="577.669" y1="644.540" x2="648.634" y2="426.132"/>
<line x1="298.315" y1="326.121" x2="222.331" y2="155.460"/>
<line x1="298.315" y1="326.121" x2="484.103" y2="306.594"/>
<line x1="298.315" y1="326.121" x2="451.979" y2="155.460"/>
<line x1="298.315" y1="326.121" x2="298.315" y2="171.611"/>
<line x1="298.315" y1="326.121" x2="522.944" y2="373.868"/>
<line x1="298.315" y1="326.121" x2="274.310" y2="400.000"/>
<line x1="298.315" y1="326.121" x2="151.366" y2="373.868"/>
<line x1="175.371" y1="602.257" x2="99.388" y2="431.596"/>
<line x1="175.371" y1="602.257" x2="285.176" y2="753.391"/>
<line x1="175.371" y1="602.257" x2="253.052" y2="602.257"/>
<line x1="175.371" y1="602.257" x2="99.388" y2="618.408"/>
<line x1="175.371" y1="602.257" x2="400.000" y2="650.003"/>
<line x1="175.371" y1="602.257" x2="151.366" y2="676.136"/>
<line x1="175.371" y1="602.257" x2="151.366" y2="373.868"/>
<line x1="624.629" y1="197.743" x2="514.824" y2="46.609"/>
<line x1="624.629" y1="197.743" x2="700.612" y2="181.592"/>
<line x1="624.629" y1="197.743" x2="546.948" y2="197.743"/>
<line x1="624.629" y1="197.743" x2="648.634" y2="123.864"/>
<line x1="624.629" y1="197.743" x2="400.000" y2="149.997"/>
<line x1="624.629" y1="197.743" x2="648.634" y2="426.132"/>
<line x1="501.685" y1="473.879" x2="315.897" y2="493.406"/>
<line x1="501.685" y1="473.879" x2="501.685" y2="628.389"/>
<line x1="501.685" y1="473.879" x2="348.021" y2="644.540"/>
<line x1="501.685" y1="473.879" x2="525.690" y2="400.000"/>
<line x1="501.685" y1="473.879" x2="277.056" y2="426.132"/>
<line x1="501.685" y1="473.879" x2="648.634" y2="426.132"/>
<line x1="222.331" y1="155.460" x2="361.160" y2="30.458"/>
<line x1="222.331" y1="155.460" x2="451.979" y2="155.460"/>
<line x1="222.331" y1="155.460" x2="298.315" y2="171.611"/>
<line x1="222.331" y1="155.460" x2="400.000" y2="97.732"/>
<line x1="222.331" y1="155.460" x2="151.366" y2="123.864"/>
<line x1="222.331" y1="155.460" x2="151.366" y2="373.868"/>
<line x1="99.388" y1="431.596" x2="162.233" y2="477.255"/>
<line x1="99.388" y1="431.596" x2="253.052" y2="602.257"/>
<line x1="99.388" y1="431.596" x2="99.388" y2="618.408"/>
<line x1="99.388" y1="431.596" x2="277.056" y2="373.868"/>
<line x1="99.388" y1="431.596" x2="28.423" y2="400.000"/>
<line x1="99.388" y1="431.596" x2="151.366" y2="373.868"/>
<line x1="661.772" y1="248.866" x2="585.789" y2="78.205"/>
<line x1="661.772" y1="248.866" x2="637.767" y2="322.745"/>
<line x1="661.772" y1="248.866" x2="484.103" y2="306.594"/>
<line x1="661.772" y1="248.866" x2="700.612" y2="181.592"/>
<line x1="661.772" y1="248.866" x2="451.979" y2="155.460"/>
<line x1="661.772" y1="248.866" x2="771.577" y2="400.000"/>
<line x1="661.772" y1="248.866" x2="522.944" y2="373.868"/>
<line x1="661.772" y1="248.866" x2="522.944" y2="123.864"/>
<line x1="462.845" y1="695.663" x2="386.862" y2="525.002"/>
<line x1="462.845" y1="695.663" x2="438.840" y2="769.542"/>
<line x1="462.845" y1="695.663" x2="285.176" y2="753.391"/>
<line x1="462.845" y1="695.663" x2="501.685" y2="628.389"/>
<line x1="462.845" y1="695.663" x2="253.052" y2="602.257"/>
<line x1="462.845" y1="695.663" x2="648.634" y2="676.136"/>
<line x1="462.845" y1="695.663" x2="400.000" y2="650.003"/>
<line x1="462.845" y1="695.663" x2="277.056" y2="676.136"/>
<line x1="413.138" y1="274.998" x2="337.155" y2="104.337"/>
<line x1="413.138" y1="274.998" x2="637.767" y2="322.745"/>
<line x1="413.138" y1="274.998" x2="484.103" y2="306.594"/>
<line x1="413.138" y1="274.998" x2="546.948" y2="197.743"/>
<line x1="413.138" y1="274.998" x2="298.315" y2="171.611"/>
<line x1="413.138" y1="274.998" x2="522.944" y2="426.132"/>
<line x1="413.138" y1="274.998" x2="274.310" y2="400.000"/>
<line x1="413.138" y1="274.998" x2="522.944" y2="123.864"/>
<line x1="214.211" y1="721.795" x2="138.228" y2="551.134"/>
<line x1="214.211" y1="721.795" x2="438.840" y2="769.542"/>
<line x1="214.211" y1="721.795" x2="285.176" y2="753.391"/>
<line x1="214.211" y1="721.795" x2="348.021" y2="644.540"/>
<line x1="214.211" y1="721.795" x2="99.388" y2="618.408"/>
<line x1="214.211" y1="721.795" x2="400.000" y2="702.268"/>
<line x1="214.211" y1="721.795" x2="151.366" y2="676.136"/>
<line x1="214.211" y1="721.795" x2="277.056" y2="676.136"/>
<line x1="585.789" y1="78.205" x2="514.824" y2="46.609"/>
<line x1="585.789" y1="78.205" x2="361.160" y2="30.458"/>
<line x1="585.789" y1="78.205" x2="700.612" y2="181.592"/>
<line x1="585.789" y1="78.205" x2="451.979" y2="155.460"/>
<line x1="585.789" y1="78.205" x2="648.634" y2="123.864"/>
<line x1="585.789" y1="78.205" x2="400.000" y2="97.732"/>
<line x1="585.789" y1="78.205" x2="522.944" y2="123.864"/>
<line x1="386.862" y1="525.002" x2="315.897" y2="493.406"/>
<line x1="386.862" y1="525.002" x2="162.233" y2="477.255"/>
<line x1="386.862" y1="525.002" x2="501.685" y2="628.389"/>
<line x1="386.862" y1="525.002" x2="253.052" y2="602.257"/>
<line x1="386.862" y1="525.002" x2="525.690" y2="400.000"/>
<line x1="386.862" y1="525.002" x2="277.056" y2="373.868"/>
<line x1="386.862" y1="525.002" x2="277.056" y2="676.136"/>
<line x1="337.155" y1="104.337" x2="514.824" y2="46.609"/>
<line x1="337.155" y1="104.337" x2="361.160" y2="30.458"/>
<line x1="337.155" y1="104.337" x2="546.948" y2="197.743"/>
<line x1="337.155" y1="104.337" x2="298.315" y2="171.611"/>
<line x1="337.155" y1="104.337" x2="400.000" y2="149.997"/>
<line x1="337.155" y1="104.337" x2="151.366" y2="123.864"/>
<line x1="337.155" y1="104.337" x2="522.944" y2="123.864"/>
<line x1="138.228" y1="551.134" x2="315.897" y2="493.406"/>
<line x1="138.228" y1="551.134" x2="162.233" y2="477.255"/>
<line x1="138.228" y1="551.134" x2="348.021" y2="644.540"/>
<line x1="138.228" y1="551.134" x2="99.388" y2="618.408"/>
<line x1="138.228" y1="551.134" x2="277.056" y2="426.132"/>
<line x1="138.228" y1="551.134" x2="28.423" y2="400.000"/>
<line x1="138.228" y1="551.134" x2="277.056" y2="676.136"/>
<line x1="637.767" y1="322.745" x2="484.103" y2="306.594"/>
<line x1="637.767" y1="322.745" x2="700.612" y2="181.592"/>
<line x1="637.767" y1="322.745" x2="546.948" y2="197.743"/>
<line x1="637.767" y1="322.745" x2="771.577" y2="400.000"/>
<line x1="637.767" y1="322.745" x2="522.944" y2="426.132"/>
<line x1="637.767" y1="322.745" x2="522.944" y2="123.864"/>
<line x1="438.840" y1="769.542" x2="285.176" y2="753.391"/>
<line x1="438.840" y1="769.542" x2="501.685" y2="628.389"/>
<line x1="438.840" y1="769.542" x2="348.021" y2="644.540"/>
<line x1="438.840" y1="769.542" x2="648.634" y2="676.136"/>
<line x1="438.840" y1="769.542" x2="400.000" y2="702.268"/>
<line x1="438.840" y1="769.542" x2="277.056" y2="676.136"/>
<line x1="484.103" y1="306.594" x2="451.979" y2="155.460"/>
<line x1="484.103" y1="306.594" x2="298.315" y2="171.611"/>
<line x1="484.103" y1="306.594" x2="522.944" y2="373.868"/>
<line x1="484.103" y1="306.594" x2="274.310" y2="400.000"/>
<line x1="484.103" y1="306.594" x2="522.944" y2="123.864"/>
<line x1="285.176" y1="753.391" x2="253.052" y2="602.257"/>
<line x1="285.176" y1="753.391" x2="99.388" y2="618.408"/>
<line x1="285.176" y1="753.391" x2="400.000" y2="650.003"/>
<line x1="285.176" y1="753.391" x2="151.366" y2="676.136"/>
<line x1="285.176" y1="753.391" x2="277.056" y2="676.136"/>
<line x1="514.824" y1="46.609" x2="361.160" y2="30.458"/>
<line x1="514.824" y1="46.609" x2="700.612" y2="181.592"/>
<line x1="514.824" y1="46.609" x2="546.948" y2="197.743"/>
<line x1="514.824" y1="46.609" x2="648.634" y2="123.864"/>
<line x1="514.824" y1="46.609" x2="400.000" y2="149.997"/>
<line x1="514.824" y1="46.609" x2="522.944" y2="123.864"/>
<line x1="315.897" y1="493.406" x2="162.233" y2="477.255"/>
<line x1="315.897" y1="493.406" x2="501.685" y2="628.389"/>
<line x1="315.897" y1="493.406" x2="348.021" y2="644.540"/>
<line x1="315.897" y1="493.406" x2="525.690" y2="400.000"/>
<line x1="315.897" y1="493.406" x2="277.056" y2="426.132"/>
<line x1="315.897" y1="493.406" x2="277.056" y2="676.136"/>
<line x1="361.160" y1="30.458" x2="451.979" y2="155.460"/>
<line x1="361.160" y1="30.458" x2="298.315" y2="171.611"/>
<line x1="361.160" y1="30.458" x2="400.000" y2="97.732"/>
<line x1="361.160" y1="30.458" x2="151.366" y2="123.864"/>
<line x1="361.160" y1="30.458" x2="522.944" y2="123.864"/>
<line x1="162.233" y1="477.255" x2="253.052" y2="602.257"/>
<line x1="162.233" y1="477.255" x2="99.388" y2="618.408"/>
<line x1="162.233" y1="477.255" x2="277.056" y2="373.868"/>
<line x1="162.233" y1="477.255" x2="28.423" y2="400.000"/>
<line x1="162.233" y1="477.255" x2="277.056" y2="676.136"/>
<line x1="700.612" y1="181.592" x2="546.948" y2="197.743"/>
<line x1="700.612" y1="181.592" x2="771.577" y2="400.000"/>
<line x1="700.612" y1="181.592" x2="648.634" y2="123.864"/>
<line x1="700.612" y1="181.592" x2="522.944" y2="123.864"/>
<line x1="501.685" y1="628.389" x2="348.021" y2="644.540"/>
<line x1="501.685" y1="628.389" x2="648.634" y2="676.136"/>
<line x1="501.685" y1="628.389" x2="525.690" y2="400.000"/>
<line x1="501.685" y1="628.389" x2="277.056" y2="676.136"/>
<line x1="451.979" y1="155.460" x2="298.315" y2="171.611"/>
<line x1="451.979" y1="155.460" x2="522.944" y2="373.868"/>
<line x1="451.979" y1="155.460" x2="400.000" y2="97.732"/>
<line x1="451.979" y1="155.460" x2="522.944" y2="123.864"/>
<line x1="253.052" y1="602.257" x2="99.388" y2="618.408"/>
<line x1="253.052" y1="602.257" x2="400.000" y2="650.003"/>
<line x1="253.052" y1="602.257" x2="277.056" y2="373.868"/>
<line x1="253.052" y1="602.257" x2="277.056" y2="676.136"/>
<line x1="546.948" y1="197.743" x2="522.944" y2="426.132"/>
<line x1="546.948" y1="197.743" x2="400.000" y2="149.997"/>
<line x1="546.948" y1="197.743" x2="522.944" y2="123.864"/>
<line x1="348.021" y1="644.540" x2="400.000" y2="702.268"/>
<line x1="348.021" y1="644.540" x2="277.056" y2="426.132"/>
<line x1="348.021" y1="644.540" x2="277.056" y2="676.136"/>
<line x1="298.315" y1="171.611" x2="274.310" y2="400.000"/>
<line x1="298.315" y1="171.611" x2="151.366" y2="123.864"/>
<line x1="298.315" y1="171.611" x2="522.944" y2="123.864"/>
<line x1="99.388" y1="618.408" x2="151.366" y2="676.136"/>
<line x1="99.388" y1="618.408" x2="28.423" y2="400.000"/>
<line x1="99.388" y1="618.408" x2="277.056" y2="676.136"/>
</g>
<g style="stroke:#000000;stroke-width:1;fill:#ff0000">
<circle cx="700.612" cy="618.408" r="6"/>
<circle cx="546.948" cy="602.257" r="6"/>
<circle cx="451.979" cy="644.540" r="6"/>
<circle cx="298.315" cy="628.389" r="6"/>
<circle cx="501.685" cy="171.611" r="6"/>
<circle cx="348.021" cy="155.460" r="6"/>
<circle cx="253.052" cy="197.743" r="6"/>
<circle cx="99.388" cy="181.592" r="6"/>
<circle cx="763.457" cy="477.255" r="6"/>
<circle cx="514.824" cy="451.123" r="6"/>
<circle cx="361.160" cy="519.538" r="6"/>
<circle cx="112.526" cy="493.406" r="6"/>
<circle cx="687.474" cy="306.594" r="6"/>
<circle cx="438.840" cy="280.462" r="6"/>
<circle cx="285.176" cy="348.877" r="6"/>
<circle cx="36.543" cy="322.745" r="6"/>
<circle cx="739.453" cy="551.134" r="6"/>
<circle cx="337.155" cy="508.851" r="6"/>
<circle cx="585.789" cy="567.285" r="6"/>
<circle cx="183.491" cy="525.002" r="6"/>
<circle cx="616.509" cy="274.998" r="6"/>
<circle cx="214.211" cy="232.715" r="6"/>
<circle cx="462.845" cy="291.149" r="6"/>
<circle cx="60.547" cy="248.866" r="6"/>
<circle cx="700.612" cy="431.596" r="6"/>
<circle cx="624.629" cy="602.257" r="6"/>
<circle cx="298.315" cy="473.879" r="6"/>
<circle cx="222.331" cy="644.540" r="6"/>
<circle cx="577.669" cy="155.460" r="6"/>
<circle cx="501.685" cy="326.121" r="6"/>
<circle cx="175.371" cy="197.743" r="6"/>
<circle cx="99.388" cy="368.404" r="6"/>
<circle cx="661.772" cy="551.134" r="6"/>
<circle cx="585.789" cy="721.795" r="6"/>
<circle cx="413.138" cy="525.002" r="6"/>
<circle cx="337.155" cy="695.663" r="6"/>
<circle cx="462.845" cy="104.337" r="6"/>
<circle cx="386.862" cy="274.998" r="6"/>
<circle cx="214.211" cy="78.205" r="6"/>
<circle cx="138.228" cy="248.866" r="6"/>
<circle cx="763.457" cy="322.745" r="6"/>
<circle cx="687.474" cy="493.406" r="6"/>
<circle cx="361.160" cy="280.462" r="6"/>
<circle cx="285.176" cy="451.123" r="6"/>
<circle cx="514.824" cy="348.877" r="6"/>
<circle cx="438.840" cy="519.538" r="6"/>
<circle cx="112.526" cy="306.594" r="6"/>
<circle cx="36.543" cy="477.255" r="6"/>
<circle cx="637.767" cy="477.255" r="6"/>
<circle cx="514.824" cy="753.391" r="6"/>
<circle cx="484.103" cy="493.406" r="6"/>
<circle cx="361.160" cy="769.542" r="6"/>
<circle cx="438.840" cy="30.458" r="6"/>
<circle cx="315.897" cy="306.594" r="6"/>
<circle cx="285.176" cy="46.609" r="6"/>
<circle cx="162.233" cy="322.745" r="6"/>
<circle cx="739.453" cy="248.866" r="6"/>
<circle cx="616.509" cy="525.002" r="6"/>
<circle cx="585.789" cy="232.715" r="6"/>
<circle cx="462.845" cy="508.851" r="6"/>
<circle cx="337.155" cy="291.149" r="6"/>
<circle cx="214.211" cy="567.285" r="6"/>
<circle cx="183.491" cy="274.998" r="6"/>
<circle cx="60.547" cy="551.134" r="6"/>
<circle cx="700.612" cy="368.404" r="6"/>
<circle cx="577.669" cy="644.540" r="6"/>
<circle cx="298.315" cy="326.121" r="6"/>
<circle cx="175.371" cy="602.257" r="6"/>
<circle cx="624.629" cy="197.743" r="6"/>
<circle cx="501.685" cy="473.879" r="6"/>
<circle cx="222.331" cy="155.460" r="6"/>
<circle cx="99.388" cy="431.596" r="6"/>
<circle cx="661.772" cy="248.866" r="6"/>
<circle cx="462.845" cy="695.663" r="6"/>
<circle cx="413.138" cy="274.998" r="6"/>
<circle cx="214.211" cy="721.795" r="6"/>
<circle cx="585.789" cy="78.205" r="6"/>
<circle cx="386.862" cy="525.002" r="6"/>
<circle cx="337.155" cy="104.337" r="6"/>
<circle cx="138.228" cy="551.134" r="6"/>
<circle cx="637.767" cy="322.745" r="6"/>
<circle cx="438.840" cy="769.542" r="6"/>
<circle cx="484.103" cy="306.594" r="6"/>
<circle cx="285.176" cy="753.391" r="6"/>
<circle cx="514.824" cy="46.609" r="6"/>
<circle cx="315.897" cy="493.406" r="6"/>
<circle cx="361.160" cy="30.458" r="6"/>
<circle cx="162.233" cy="477.255" r="6"/>
<circle cx="700.612" cy="181.592" r="6"/>
<circle cx="501.685" cy="628.389" r="6"/>
<circle cx="451.979" cy="155.460" r="6"/>
<circle cx="253.052" cy="602.257" r="6"/>
<circle cx="546.948" cy="197.743" r="6"/>
<circle cx="348.021" cy="644.540" r="6"/>
<circle cx="298.315" cy="171.611" r="6"/>
<circle cx="99.388" cy="618.408" r="6"/>
<circle cx="771.577" cy="400.000" r="6"/>
<circle cx="648.634" cy="676.136" r="6"/>
<circle cx="522.944" cy="373.868" r="6"/>
<circle cx="400.000" cy="650.003" r="6"/>
<circle cx="522.944" cy="426.132" r="6"/>
<circle cx="400.000" cy="702.268" r="6"/>
<circle cx="274.310" cy="400.000" r="6"/>
<circle cx="151.366" cy="676.136" r="6"/>
<circle cx="648.634" cy="123.864" r="6"/>
<circle cx="525.690" cy="400.000" r="6"/>
<circle cx="400.000" cy="97.732" r="6"/>
<circle cx="277.056" cy="373.868" r="6"/>
<circle cx="400.000" cy="149.997" r="6"/>
<circle cx="277.056" cy="426.132" r="6"/>
<circle cx="151.366" cy="123.864" r="6"/>
<circle cx="28.423" cy="400.000" r="6"/>
<circle cx="522.944" cy="123.864" r="6"/>
<circle cx="277.056" cy="676.136" r="6"/>
<circle cx="648.634" cy="426.132" r="6"/>
<circle cx="151.366" cy="373.868" r="6"/>
<circle cx="648.634" cy="373.868" r="6"/>
<circle cx="151.366" cy="426.132" r="6"/>
<circle cx="522.944" cy="676.136" r="6"/>
<circle cx="277.056" cy="123.864" r="6"/>
</g>
</svg>
